<svg width="64" height="64" viewBox="0 0 64 64" fill="none" xmlns="http://www.w3.org/2000/svg">
<rect width="64" height="64" rx="4" fill="#CCFF80"/>
<path d="M39.0002 22C40.7002 24.3 37.2002 24.3 39.0002 27M32.0002 43C45.5002 43 45.2002 41.2 44.9002 37.4C44.6002 33.2 40.0002 30 32.0002 30C24.0002 30 19.4002 33.2 19.1002 37.4C18.8002 41.2 18.5002 43 32.0002 43ZM32.0002 35C32.0002 33.5 32.1002 31.8 33.0002 30L32.0002 35ZM26.0002 35C26.0002 33.5 26.1002 32.4 27.0002 30.7L26.0002 35ZM38.0002 35C38.0002 33.7 38.1002 32.6 38.8002 31.1L38.0002 35ZM32.0002 21C33.7002 23.3 30.2002 23.3 32.0002 26V21ZM25.0002 22C26.7002 24.3 23.2002 24.3 25.0002 27V22Z" stroke="#21A300" stroke-width="2" stroke-miterlimit="10" stroke-linecap="round" stroke-linejoin="round"/>
</svg>
