<svg width="64" height="64" viewBox="0 0 64 64" fill="none" xmlns="http://www.w3.org/2000/svg">
<rect width="64" height="64" rx="4" fill="#80FFA3"/>
<path d="M27.1537 20.0031C23.2191 20.0031 20.0016 23.189 20.0016 27.1044C20.0392 28.0779 20.2012 29.1654 20.4 30.0066H18.9958C17.6323 29.9764 17.6323 32.0371 18.9958 32.0065H21.025C22.7774 36.5603 26.6989 41.1133 31.509 43.8674C31.8154 44.0416 32.1908 44.0416 32.4972 43.8674C35.6772 42.0467 38.5122 39.3152 40.5809 36.3247C41.5507 34.9228 42.347 33.464 42.9304 32.0065H45.0026C46.3661 32.0367 46.3661 29.976 45.0026 30.0066H43.5847C43.849 28.9982 43.9855 28.0581 43.9987 27.1044C43.9987 23.189 40.7793 20.0031 36.8447 20.0031C35.0132 20.0031 33.2913 20.6993 31.9933 21.8878C30.6965 20.7023 28.9835 20.0031 27.1537 20.0031ZM27.1537 22.005C28.7473 22.005 30.2157 22.7245 31.177 23.915C31.5499 24.377 32.2408 24.4143 32.6613 23.9951C33.9012 22.9061 35.4471 22.0277 36.8447 22.005C39.6607 22.005 41.9179 24.2063 41.991 26.9676C41.9282 28.0378 41.7638 29.141 41.5086 30.0066H37.001C36.7359 30.0046 36.4809 30.1079 36.292 30.2938L35.2725 31.3134L33.8937 28.5596C33.5244 27.825 32.4759 27.825 32.1066 28.5596L31.1027 30.5673L29.929 27.6299C29.776 27.247 29.4037 26.9974 28.9915 27.001C28.6581 27.0043 28.3483 27.1733 28.1654 27.4521L26.4662 30.0067H22.5152C22.2297 28.9422 22.0376 27.8973 22.0113 26.9228C22.1077 24.1828 24.3531 22.0051 27.1537 22.0051V22.005ZM28.7767 30.1394L30.0696 33.3717C30.3876 34.1732 31.503 34.2233 31.8918 33.4537L32.9992 31.239L34.1065 33.4537C34.4127 34.0634 35.226 34.1944 35.708 33.7115L37.413 32.0065H40.7489C40.2675 33.0662 39.6575 34.1427 38.9345 35.1879C37.1562 37.7586 34.653 40.0239 32.0031 41.6682C28.179 39.2952 24.9798 35.5725 23.3003 32.0065H26.9974C27.3343 32.0064 27.6485 31.8367 27.8333 31.5553L28.7767 30.1394Z" fill="#00A3A3"/>
</svg>
