<svg width="64" height="64" viewBox="0 0 64 64" fill="none" xmlns="http://www.w3.org/2000/svg">
<rect width="64" height="64" rx="4" fill="#FFCC80"/>
<path d="M42.6668 26.6667L34.6668 19.6533C33.9334 18.9974 32.984 18.6348 32.0001 18.6348C31.0162 18.6348 30.0668 18.9974 29.3335 19.6533L21.3335 26.6667C20.91 27.0454 20.572 27.5101 20.3421 28.0297C20.1122 28.5493 19.9956 29.1118 20.0001 29.68V41.3333C20.0001 42.3942 20.4216 43.4116 21.1717 44.1618C21.9218 44.9119 22.9393 45.3333 24.0001 45.3333H40.0001C41.061 45.3333 42.0784 44.9119 42.8286 44.1618C43.5787 43.4116 44.0001 42.3942 44.0001 41.3333V29.6667C44.0027 29.1008 43.8853 28.5407 43.6554 28.0236C43.4256 27.5064 43.0886 27.0439 42.6668 26.6667ZM34.6668 42.6667H29.3335V36C29.3335 35.6464 29.4739 35.3072 29.724 35.0572C29.974 34.8071 30.3132 34.6667 30.6668 34.6667H33.3335C33.6871 34.6667 34.0262 34.8071 34.2763 35.0572C34.5263 35.3072 34.6668 35.6464 34.6668 36V42.6667ZM41.3335 41.3333C41.3335 41.687 41.193 42.0261 40.9429 42.2761C40.6929 42.5262 40.3537 42.6667 40.0001 42.6667H37.3335V36C37.3335 34.9391 36.912 33.9217 36.1619 33.1716C35.4117 32.4214 34.3943 32 33.3335 32H30.6668C29.6059 32 28.5885 32.4214 27.8384 33.1716C27.0882 33.9217 26.6668 34.9391 26.6668 36V42.6667H24.0001C23.6465 42.6667 23.3074 42.5262 23.0573 42.2761C22.8073 42.0261 22.6668 41.687 22.6668 41.3333V29.6667C22.667 29.4774 22.7076 29.2903 22.7857 29.1178C22.8639 28.9454 22.9779 28.7916 23.1201 28.6667L31.1201 21.6667C31.3634 21.4529 31.6762 21.335 32.0001 21.335C32.324 21.335 32.6368 21.4529 32.8801 21.6667L40.8801 28.6667C41.0223 28.7916 41.1363 28.9454 41.2145 29.1178C41.2927 29.2903 41.3332 29.4774 41.3335 29.6667V41.3333Z" fill="#A36200"/>
</svg>
