<svg width="64" height="64" viewBox="0 0 64 64" fill="none" xmlns="http://www.w3.org/2000/svg">
<rect width="64" height="64" rx="4" fill="#80D1FF"/>
<path d="M44.7065 25.5333C44.5038 25.4163 44.2739 25.3547 44.0398 25.3547C43.8058 25.3547 43.5759 25.4163 43.3732 25.5333L38.6665 27.8533C38.6285 26.8181 38.1904 25.838 37.4443 25.1193C36.6982 24.4005 35.7024 23.9993 34.6665 24H22.6665C21.6056 24 20.5882 24.4214 19.8381 25.1716C19.0879 25.9217 18.6665 26.9391 18.6665 28V36C18.6665 37.0609 19.0879 38.0783 19.8381 38.8284C20.5882 39.5786 21.6056 40 22.6665 40H34.6665C35.7024 40.0007 36.6982 39.5995 37.4443 38.8807C38.1904 38.162 38.6285 37.1819 38.6665 36.1467L43.4132 38.52C43.5949 38.6132 43.7956 38.6634 43.9998 38.6667C44.2495 38.6675 44.4943 38.5982 44.7065 38.4667C44.8987 38.3466 45.057 38.1795 45.1667 37.9812C45.2763 37.7829 45.3336 37.5599 45.3332 37.3333V26.6667C45.3336 26.4401 45.2763 26.2171 45.1667 26.0188C45.057 25.8205 44.8987 25.6534 44.7065 25.5333ZM35.9998 36C35.9998 36.3536 35.8594 36.6928 35.6093 36.9428C35.3593 37.1929 35.0201 37.3333 34.6665 37.3333H22.6665C22.3129 37.3333 21.9737 37.1929 21.7237 36.9428C21.4736 36.6928 21.3332 36.3536 21.3332 36V28C21.3332 27.6464 21.4736 27.3072 21.7237 27.0572C21.9737 26.8071 22.3129 26.6667 22.6665 26.6667H34.6665C35.0201 26.6667 35.3593 26.8071 35.6093 27.0572C35.8594 27.3072 35.9998 27.6464 35.9998 28V36ZM42.6665 35.1733L38.6665 33.1733V30.8267L42.6665 28.8267V35.1733Z" fill="#0069A3"/>
</svg>
