<svg width="64" height="64" viewBox="0 0 64 64" fill="none" xmlns="http://www.w3.org/2000/svg">
<rect width="64" height="64" rx="4" fill="#FC80FF"/>
<path d="M24.9712 44.932H23.9712C22.8782 44.932 21.9122 44.498 21.2522 43.712C20.5922 42.925 20.3232 41.848 20.5162 40.758C20.8942 38.612 22.8762 36.932 25.0302 36.932H27.5482V23.803C27.5504 23.0423 27.8405 22.3108 28.3601 21.7553C28.8798 21.1999 29.5904 20.8618 30.3492 20.809L41.3492 20.076C41.7588 20.0501 42.1694 20.1079 42.5559 20.246C42.9424 20.3841 43.2967 20.5994 43.5972 20.879C44.2012 21.444 44.5482 22.243 44.5482 23.07L44.5382 37.439C44.5372 37.659 44.5262 37.877 44.4852 38.107C44.1072 40.252 42.1252 41.932 39.9712 41.932H38.9712C37.8782 41.932 36.9122 41.498 36.2522 40.712C35.5922 39.925 35.3232 38.848 35.5162 37.758C35.8942 35.612 37.8762 33.932 40.0302 33.932H42.5482V29.07C42.5482 28.79 42.4362 28.53 42.2312 28.339C42.1318 28.2448 42.0138 28.1725 41.8848 28.1265C41.7559 28.0805 41.6188 28.062 41.4822 28.072L30.4822 28.805C30.2293 28.8226 29.9924 28.9353 29.8192 29.1205C29.6459 29.3056 29.5491 29.5494 29.5482 29.803V40.432C29.5482 40.521 29.5362 40.607 29.5152 40.689C29.5062 40.994 29.4952 41.05 29.4862 41.107C29.1062 43.251 27.1242 44.932 24.9712 44.932ZM25.0292 38.932C23.8572 38.932 22.6922 39.927 22.4842 41.106C22.3942 41.62 22.5012 42.088 22.7842 42.427C23.0572 42.752 23.4792 42.932 23.9712 42.932H24.9712C26.1432 42.932 27.3082 41.937 27.5162 40.758C27.5132 40.756 27.5272 40.465 27.5362 38.932H25.0292ZM40.0292 35.932C38.8572 35.932 37.6922 36.927 37.4842 38.106C37.3942 38.62 37.5012 39.088 37.7842 39.427C38.0572 39.752 38.4792 39.932 38.9712 39.932H39.9712C41.1432 39.932 42.3082 38.937 42.5162 37.758C42.5362 37.645 42.5372 37.535 42.5372 37.428L42.5442 35.932H40.0292ZM30.4802 22.805C30.2273 22.8226 29.9904 22.9353 29.8172 23.1205C29.6439 23.3056 29.5471 23.5494 29.5462 23.803V26.975C29.7992 26.885 30.0672 26.828 30.3472 26.809L41.3472 26.076C41.7552 26.053 42.1642 26.107 42.5462 26.242V23.069C42.5462 22.789 42.4342 22.529 42.2292 22.338C42.1296 22.244 42.0117 22.1718 41.8827 22.1259C41.7538 22.0799 41.6167 22.0612 41.4802 22.071L30.4802 22.805Z" fill="#A000A3"/>
</svg>
