<svg width="64" height="64" viewBox="0 0 64 64" fill="none" xmlns="http://www.w3.org/2000/svg">
<rect width="64" height="64" rx="4" fill="#FF80EB"/>
<path d="M41.8437 42.722C41.5987 42.722 41.3552 42.641 41.1557 42.4835L33.3352 36.3425C33.0667 36.1315 32.9097 35.809 32.9097 35.4675V25.2685C32.9097 24.9265 33.0662 24.604 33.3347 24.3935L41.1552 18.251C41.4907 17.9885 41.9462 17.939 42.3302 18.1255C42.7132 18.3115 42.9562 18.7 42.9562 19.1265V41.609C42.9562 42.035 42.7132 42.424 42.3302 42.61C42.1752 42.685 42.0087 42.722 41.8437 42.722ZM35.1357 34.926L40.7302 39.3195V21.416L35.1357 25.81V34.926Z" fill="#A30089"/>
<path d="M34.0225 36.5535H22.186C18.775 36.5535 16 33.779 16 30.3675C16 26.957 18.775 24.182 22.186 24.182H34.0225C34.637 24.182 35.1355 24.68 35.1355 25.2955V35.4405C35.1355 36.055 34.637 36.5535 34.0225 36.5535ZM22.186 26.408C20.0025 26.408 18.226 28.184 18.226 30.3675C18.226 32.551 20.0025 34.3275 22.186 34.3275H32.9095V26.408H22.186Z" fill="#A30089"/>
<path d="M24.5922 45.987C23.8662 45.987 23.1552 45.7765 22.5327 45.37C21.6867 44.818 21.1062 43.969 20.8982 42.9815L19.2907 35.3385C19.1642 34.737 19.5492 34.1465 20.1507 34.02C20.7537 33.893 21.3427 34.279 21.4692 34.88L23.0772 42.523C23.1627 42.9295 23.4012 43.2785 23.7502 43.5065C24.0977 43.733 24.5127 43.8125 24.9192 43.726C25.7572 43.5485 26.2962 42.721 26.1197 41.8835L24.8127 35.669C24.6862 35.0675 25.0717 34.4775 25.6732 34.3505C26.2752 34.2245 26.8647 34.6095 26.9912 35.211L28.2982 41.425C28.7267 43.462 27.4177 45.4715 25.3802 45.904C25.1172 45.9595 24.8532 45.987 24.5922 45.987ZM43.5662 34.802H41.8427C41.2282 34.802 40.7297 34.304 40.7297 33.6885C40.7297 33.074 41.2282 32.5755 41.8427 32.5755H43.5662C44.1557 32.5755 44.7097 32.3465 45.1252 31.9305C45.5437 31.5125 45.7742 30.9575 45.7742 30.367C45.7742 29.149 44.7837 28.159 43.5662 28.159H41.8427C41.2282 28.159 40.7297 27.6605 40.7297 27.0455C40.7297 26.4305 41.2282 25.9325 41.8427 25.9325H43.5662C46.0112 25.9325 48.0002 27.9215 48.0002 30.3665C48.0002 31.551 47.5382 32.6655 46.6992 33.5045C45.8632 34.342 44.7502 34.802 43.5662 34.802Z" fill="#A30089"/>
</svg>
